<svg t="1611836562428" class="icon" viewBox="0 0 1024 1024" version="1.1" xmlns="http://www.w3.org/2000/svg" p-id="795" width="128" height="128"><path d="M545.70715308 210.52417016v267.79833984h267.82305956a297.99536133 297.99536133 0 0 0-28.6842041-98.87695359c-15.28637672-31.10668969-34.66131592-58.40167212-58.19897461-81.98876953-23.52282715-23.58215333-50.88207984-42.94720435-82.02832079-58.18908645a299.86907983 299.86907983 0 0 0-98.89178443-28.7385869h-0.01977563zM478.30273437 545.78625488V210.52911353c-37.41009546 4.22204566-72.72399926 15.03424048-105.98620605 32.54534936-33.29186988 17.40728736-61.93652344 39.4519043-85.87463379 65.92126441-23.98754906 26.46936011-42.92742944 57.3684082-56.88885474 92.69714356C215.57678222 437.01171875 208.61584449 473.78405786 208.61584449 512c0 41.19708228 8.05847192 80.43640161 24.09136986 117.93054223 16.05761695 37.39031982 37.61773705 69.72802758 64.64575172 96.7164917 27.03790283 27.08734155 59.30639625 48.61285376 96.78570604 64.68035888 37.474365 16.06750512 76.77795386 24.10125732 117.83660889 24.10125733 38.29504395 0 75.05749488-7.00543237 110.33184814-20.91247559 35.30895972-14.00592065 66.22283935-32.95568848 92.73175001-56.953125 26.52374291-23.89361573 48.49914551-52.52838111 65.98553468-85.7955327a298.38592553 298.38592553 0 0 0 32.4810791-106.09002685H478.27801538l0.02966308 0.10382079zM512.00494408 141.21142578c50.39758301 0 98.45672632 9.88769508 144.19226075 29.35656762 45.71081543 19.56774926 85.1182251 45.93328857 118.222229 79.10156202 33.10400391 33.05950928 59.44482422 72.50646949 79.01257277 118.13323975C873.00964332 413.53338623 882.78857422 461.63702416 882.78857422 512c0 50.46679664-9.77398682 98.46661377-29.35656762 144.19720483-19.56774926 45.73059106-45.90856958 85.17755127-79.01257277 118.23706055-33.10400391 33.16827416-72.51141357 59.42999268-118.222229 79.0026853C610.46661377 872.99975586 562.4025271 882.78857422 512 882.78857422c-50.38769555 0-98.46661377-9.78881836-144.19226074-29.35656762-45.72070289-19.56774926-85.13305664-45.82946778-118.23211646-78.99774122-33.10400391-33.05950928-59.42504859-72.50646949-79.01257348-118.23706055C150.99035668 610.46661377 141.21142578 562.46679664 141.21142578 512c0-50.36791992 9.77398682-98.46661377 29.35656762-144.19720483C190.15551758 322.17602562 216.47656227 282.7290647 249.58056617 249.66955542c33.10400391-33.16827416 72.51141357-59.53381347 118.23211718-79.10156202C413.53833031 151.09912086 461.62219262 141.21142578 512.00494408 141.21142578z" p-id="796" fill="#fad067"></path></svg>
