<svg t="1611836601719" class="icon" viewBox="0 0 1024 1024" version="1.1" xmlns="http://www.w3.org/2000/svg" p-id="651" width="128" height="128"><path d="M511.32576326 167.06139115v65.08275636c154.37629814 0 279.85585249 125.47955431 279.85585245 279.85585249S665.70206142 791.85585249 511.32576326 791.85585249 231.46991077 666.37629814 231.46991077 512c0-66.38441152 23.95045435-130.68617484 66.38441153-180.93006277V415.67752054h65.08275638v-201.75654481h-209.56647559v65.08275641h103.61174817c-58.05381872 63.26043921-90.5951969 146.56636739-90.59519688 232.99626786 0 190.30197967 154.63662917 344.93860885 344.93860888 344.93860885S856.26437211 702.30197967 856.26437211 512 701.62774294 167.06139115 511.32576326 167.06139115z" fill="#fad067" p-id="652"></path><path d="M612.85486323 501.06609693l-148.64901559-85.90923846c-1.30165514-0.78099308-2.86364128 0.26033104-2.8636413 1.82231722v171.81847684c0 1.56198615 1.56198615 2.34297923 2.8636413 1.8223172l148.64901559-85.90923843c1.30165514-0.78099308 1.30165514-2.86364128 0-3.64463437z" fill="#fad067" p-id="653"></path></svg>