<svg t="1614245687681" class="icon" viewBox="0 0 1024 1024" version="1.1" xmlns="http://www.w3.org/2000/svg" p-id="2913" width="128" height="128"><path d="M938.666667 379.733333c0-17.066667-8.533333-29.866667-25.6-34.133333l-384-170.666667c-12.8-4.266667-25.6-4.266667-34.133334 0l-384 170.666667c-17.066667 4.266667-25.6 21.333333-25.6 38.4s8.533333 34.133333 25.6 38.4L256 486.4V725.333333c0 17.066667 8.533333 34.133333 25.6 38.4l213.333333 85.333334c4.266667 0 8.533333 4.266667 17.066667 4.266666 4.266667 0 12.8 0 17.066667-4.266666l213.333333-85.333334c17.066667-8.533333 25.6-21.333333 25.6-38.4v-238.933333l85.333333-38.4V725.333333h85.333334V379.733333z m-256 315.733334l-170.666667 68.266666-170.666667-68.266666v-170.666667l153.6 68.266667c4.266667 4.266667 12.8 4.266667 17.066667 4.266666 4.266667 0 12.8 0 17.066667-4.266666l153.6-68.266667v170.666667z m-170.666667-187.733334L234.666667 384 512 260.266667 789.333333 384 512 507.733333z" p-id="2914" fill="#ffb900"></path></svg>