<svg t="1611836345864" class="icon" viewBox="0 0 1024 1024" version="1.1" xmlns="http://www.w3.org/2000/svg" p-id="2467" width="128" height="128"><path d="M343.008 104.992L296.96 151.04l62.016 61.984c-46.752 35.744-83.52 88.128-107.008 149.024l-78.016-39.04-28 58.016 88 44C228.16 452.992 224 481.984 224 512c0 10.88 0.256 21.376 0.992 32H128v64h108c7.744 33.376 18.016 65.28 32.992 94.016l-96 72 38.016 52 93.984-70.016C356.736 821.76 429.376 864 512 864c82.624 0 155.264-42.24 207.008-108l93.984 70.016 38.016-52-96-72c14.976-28.768 25.248-60.64 32.992-94.016H896v-64h-96.992A451.2 451.2 0 0 0 800 512c0-30.016-4.128-59.008-10.016-87.008l88-44-28-57.984-77.984 39.008c-23.488-60.896-60.256-113.28-107.008-149.024L727.04 151.04 680.96 104.96 607.04 179.008A242.304 242.304 0 0 0 512 160a242.304 242.304 0 0 0-95.008 19.008zM512 224c63.264 0 122.496 35.008 164 92C639.744 332.384 582.368 352 512 352c-70.4 0-127.744-19.616-164-36C389.504 259.008 448.736 224 512 224z m-195.008 147.008A468.864 468.864 0 0 0 480 414.016v382.976C374.4 776.992 288 660.16 288 512c0-51.744 10.752-99.616 28.992-140.992z m390.016 0c18.24 41.376 28.992 89.248 28.992 140.992 0 148.128-86.4 264.992-192 284.992V414.016c69.504-5.28 126.112-25.632 163.008-43.008z" p-id="2468" fill="#fad067"></path></svg>