<svg t="1611911498770" class="icon" viewBox="0 0 1024 1024" version="1.1" xmlns="http://www.w3.org/2000/svg" p-id="1637" width="128" height="128"><path d="M512 777.05671111c-156.70385778 0-283.69806222-127.57674667-283.69806222-283.69806222V145.58094222c0-16.31118222 13.39847111-29.70965333 29.70965333-29.70965333h508.55936c16.31118222 0 29.70965333 13.39847111 29.70965334 29.70965333v347.19516445C795.69806222 650.06250667 668.70385778 777.05671111 512 777.05671111zM287.72124445 175.29059555v317.48551112c0 123.49895111 100.77980445 224.27875555 224.27875555 224.27875555s224.27875555-100.77980445 224.27875555-224.27875555v-317.48551112H287.72124445z" fill="#ffb900" p-id="1638"></path><path d="M288.88632889 653.55776c-95.53692445 0-173.01504-77.47811555-173.01504-173.01504V290.63395555c0-16.31118222 13.39847111-29.70965333 29.70965333-29.70965333h110.10048c16.31118222 0 29.70965333 13.39847111 29.70965333 29.70965333s-13.39847111 29.70965333-29.70965333 29.70965334h-80.39082667v160.78165333c0 62.91456 51.26371555 113.59573333 113.59573334 113.59573333 16.31118222 0 29.70965333 13.39847111 29.70965333 29.70965334s-13.39847111 29.12711111-29.70965333 29.12711111z m446.22734222 0c-16.31118222 0-29.70965333-13.39847111-29.70965333-29.70965333s13.39847111-29.70965333 29.70965333-29.70965334c62.91456 0 113.59573333-51.26371555 113.59573334-113.59573333v-160.19911111H768.31857778c-16.31118222 0-29.70965333-13.39847111-29.70965333-29.70965334s13.39847111-29.70965333 29.70965333-29.70965333h110.10048c16.31118222 0 29.70965333 13.39847111 29.70965333 29.70965333v190.49130667c0 94.95438222-77.47811555 172.43249778-173.01504 172.43249778zM678.02453333 937.83836445H345.97546667c-16.31118222 0-29.70965333-13.39847111-29.70965334-29.70965334s13.39847111-29.70965333 29.70965334-29.70965333h332.63160888c16.31118222 0 29.70965333 13.39847111 29.70965334 29.70965333s-13.39847111 29.70965333-30.29219556 29.70965334z" fill="#ffb900" p-id="1639"></path><path d="M512 914.53667555c-16.31118222 0-29.70965333-13.39847111-29.70965333-29.70965333V764.82332445c0-16.31118222 13.39847111-29.70965333 29.70965333-29.70965334s29.70965333 13.39847111 29.70965333 29.70965334V884.82702222c0 16.31118222-13.39847111 29.70965333-29.70965333 29.70965333z" fill="#ffb900" p-id="1640"></path></svg>