<svg t="1611732844822" class="icon" viewBox="0 0 1024 1024" version="1.1" xmlns="http://www.w3.org/2000/svg" p-id="16985" width="200" height="200">
  <path d="M232.727273 139.636364a93.137455 93.137455 0 0 1 90.158545 69.818181l400.337455 0.046546c112.407273 7.773091 173.102545 63.162182 173.102545 161.442909 0 96-57.879273 151.924364-167.470545 163.514182l-7.214546 0.698182h-119.458909a93.137455 93.137455 0 0 1-180.363636 0.093091l-105.472-0.069819C226.699636 542.999273 186.181818 580.724364 186.181818 652.939636c0 70.190545 38.237091 106.891636 121.483637 114.408728l6.656 0.535272h386.839272A93.137455 93.137455 0 0 1 884.363636 791.272727a93.090909 93.090909 0 0 1-183.272727 23.156364l-388.375273-0.069818C200.308364 806.586182 139.636364 751.243636 139.636364 652.939636c0-96.023273 57.879273-151.924364 167.470545-163.514181l7.214546-0.698182h107.52a93.137455 93.137455 0 0 1 180.270545-0.139637l117.504 0.093091c89.623273-7.796364 130.164364-45.521455 130.164364-117.76 0-70.190545-38.237091-106.891636-121.483637-114.385454L721.640727 256H322.885818A93.137455 93.137455 0 0 1 139.636364 232.727273a93.090909 93.090909 0 0 1 93.090909-93.090909z m558.545454 605.090909a46.545455 46.545455 0 0 0-45.963636 39.168v14.754909A46.545455 46.545455 0 1 0 791.272727 744.727273zM512 465.454545a46.545455 46.545455 0 1 0 0 93.09091 46.545455 46.545455 0 0 0 0-93.09091zM232.727273 186.181818a46.545455 46.545455 0 1 0 0 93.090909 46.545455 46.545455 0 0 0 0-93.090909z" fill="#fad067" p-id="16986"></path>
</svg>
