<svg t="1611734349905" class="icon" viewBox="0 0 1024 1024" version="1.1" xmlns="http://www.w3.org/2000/svg" p-id="28071" width="200" height="200">
  <path d="M713.493333 321.28a32 32 0 0 1 0 45.269333L366.549333 713.493333a32 32 0 0 1-45.248-45.226666L668.245333 321.28a32 32 0 0 1 45.248 0zM394.666667 426.666667a32 32 0 1 0 0-64 32 32 0 0 0 0 64z m0 64a96 96 0 1 1 0-192 96 96 0 0 1 0 192zM650.666667 682.666667a32 32 0 1 0 0-64 32 32 0 0 0 0 64z m0 64a96 96 0 1 1 0-192 96 96 0 0 1 0 192z" p-id="28072" fill="#c58638"></path><path d="M512 896c212.074667 0 384-171.925333 384-384S724.074667 128 512 128 128 299.925333 128 512s171.925333 384 384 384z m0 64C264.576 960 64 759.424 64 512S264.576 64 512 64s448 200.576 448 448-200.576 448-448 448z" p-id="28073" fill="#c58638"></path>
</svg>
