<svg t="1611732607675" class="icon" viewBox="0 0 1024 1024" version="1.1" xmlns="http://www.w3.org/2000/svg" p-id="15428" width="200" height="200">
  <path d="M283.687385 786.589538a17.486769 17.486769 0 0 1-8.822154 28.947693l-157.932308 36.706461a17.526154 17.526154 0 0 1-8.546461 2.205539c-9.846154 0-17.211077-7.207385-17.565539-17.801846v-0.354462c0-1.693538 0.236308-3.387077 0.748308-5.080615l48.364307-158.79877a17.683692 17.683692 0 0 1 29.656616-6.852923l114.097231 121.028923z m346.072615-337.526153a70.104615 70.104615 0 0 1-71.404308-68.726154 70.065231 70.065231 0 0 1 69.159385-70.971077A70.065231 70.065231 0 0 1 698.919385 378.092308c0.630154 38.596923-30.326154 70.380308-69.159385 71.010461z m259.544615-324.056616c-158.562462-19.652923-313.501538 24.812308-436.342153 125.243077-15.084308 12.366769-29.853538 24.418462-44.662154 36.942769l-141.981539-4.923077a50.806154 50.806154 0 0 0-33.949538 11.421539l-123.549539 101.100308c-13.705846 11.145846-20.519385 28.711385-17.92 46.198153 2.678154 17.447385 14.217846 32.295385 30.483693 39.108924l99.958153 41.511384c-16.187077 56.477538-6.616615 109.607385 27.963077 156.435692 2.284308 3.032615 4.726154 6.144 7.24677 9.216 28.947692 35.052308 79.556923 73.412923 159.232 66.12677l22.528 109.883077c3.623385 17.329231 16.029538 31.507692 32.68923 37.415384 16.659692 5.828923 35.446154 2.56 49.073231-8.585846l123.588923-101.060923c9.491692-7.758769 15.832615-18.707692 17.801846-30.838154l23.945847-147.652923c14.020923-11.185231 27.529846-22.173538 40.172307-32.571077 122.88-100.430769 196.686769-243.003077 207.911385-401.447384 2.166154-27.844923-17.801846-50.215385-44.228923-53.523693z" fill="#fad067" p-id="15429" data-spm-anchor-id="a313x.7781069.0.i7" class="selected"></path>
</svg>
