<svg t="1611836451304" class="icon" viewBox="0 0 1024 1024" version="1.1" xmlns="http://www.w3.org/2000/svg" p-id="2678" width="128" height="128"><path d="M837.9 529.9c-2.3-0.1-4.6-0.2-6.8-0.2-52.5 0-98.5 30.8-119.9 76l-58.3-20.2c4.9-17.2 7.5-35.4 7.5-54.2 0-109.2-88.6-197.8-197.8-197.8-54.5 0-103.8 22-139.6 57.7l-49-57.8c16.4-20.5 26.2-46.5 26.2-74.8 0-66.3-53.7-120-120-120s-120 53.7-120 120 53.7 120 120 120c19.9 0 38.7-4.8 55.2-13.4l56.4 66.4c-17.1 29.3-26.9 63.3-26.9 99.7 0 41.3 12.6 79.6 34.3 111.3l-73.8 65c-15.8-10.9-34.9-17.3-55.5-17.3-53.9 0-97.5 43.7-97.5 97.5s43.7 97.5 97.5 97.5 97.5-43.7 97.5-97.5c0-15.1-3.4-29.4-9.6-42.2l74.5-65.6c34.8 30.5 80.4 49.1 130.4 49.1 72.7 0 136.2-39.2 170.6-97.6l65.6 22.7c0 0.5-0.1 1-0.1 1.5-3.7 73.2 52.6 135.6 125.9 139.4 2.3 0.1 4.6 0.2 6.8 0.2 70.2 0 128.9-55.1 132.5-126.1 3.5-73.2-52.9-135.6-126.1-139.3zM110.1 258.6c0-38.6 31.4-70 70-70s70 31.4 70 70-31.4 70-70 70-70-31.4-70-70z m59.5 576.8c-26.2 0-47.5-21.3-47.5-47.5s21.3-47.5 47.5-47.5 47.5 21.3 47.5 47.5-21.3 47.5-47.5 47.5zM567 635.9c-27.9 27.9-65 43.3-104.5 43.3s-76.6-15.4-104.5-43.3c-27.9-27.9-43.3-65-43.3-104.5s15.4-76.6 43.3-104.5c27.9-27.9 65-43.3 104.5-43.3S539.1 399 567 426.9c27.9 27.9 43.3 65 43.3 104.5s-15.4 76.5-43.3 104.5z m346.8 30.8c-2.2 44.1-38.5 78.6-82.6 78.6-1.4 0-2.9 0-4.3-0.1-22.1-1.1-42.4-10.8-57.2-27.2-14.8-16.4-22.4-37.6-21.2-59.7 2.2-44.1 38.5-78.6 82.6-78.6 1.4 0 2.9 0 4.3 0.1 45.5 2.4 80.7 41.3 78.4 86.9z" fill="#fad067" p-id="2679"></path></svg>