<svg t="1611734448886" class="icon" viewBox="0 0 1024 1024" version="1.1" xmlns="http://www.w3.org/2000/svg" p-id="31283" width="200" height="200">
  <path d="M512 926C283.7 926 98 740.3 98 512S283.7 98 512 98s414 185.7 414 414-185.7 414-414 414z m0-804.3c-215.2 0-390.3 175.1-390.3 390.3S296.8 902.3 512 902.3 902.3 727.2 902.3 512 727.2 121.7 512 121.7z" p-id="31284" fill="#fad067"></path><path d="M472.5 619.5s126.9-244.6 272.9-340.9c-18 46.1-11.5 132.5 0 178.5-71.2 16.2-217.5 198.9-265 288.1-67.2-85.1-145.7-140.2-201.7-170.3l77-73.6 116.8 118.2z" p-id="31285" fill="#fad067"></path>
</svg>
